<?xml version="1.0" standalone="no"?>
<!DOCTYPE svg PUBLIC "-//W3C//DTD SVG 20010904//EN"
 "http://www.w3.org/TR/2001/REC-SVG-20010904/DTD/svg10.dtd">
<svg version="1.0" xmlns="http://www.w3.org/2000/svg"
 width="512.000000pt" height="512.000000pt" viewBox="0 0 512.000000 512.000000"
 preserveAspectRatio="xMidYMid meet">

<g transform="translate(0.000000,512.000000) scale(0.100000,-0.100000)"
fill="#000000" stroke="none">
<path d="M0 3075 l0 -2045 168 0 169 0 12 -68 c44 -241 161 -644 251 -860 l42
-102 2044 0 2043 0 -5 53 c-40 374 -208 670 -509 893 -202 150 -259 168 -1390
455 -390 99 -782 201 -869 225 -520 148 -931 333 -1222 550 -109 81 -287 261
-362 369 -163 230 -261 521 -293 869 -15 161 -6 502 16 646 59 377 189 699
390 966 36 47 65 87 65 90 0 2 -124 4 -275 4 l-275 0 0 -2045z"/>
<path d="M1371 5084 c-69 -47 -202 -173 -255 -244 -145 -189 -220 -402 -233
-650 -10 -214 22 -384 107 -555 136 -277 406 -494 820 -660 179 -72 318 -111
1026 -290 757 -191 925 -236 1142 -306 307 -99 551 -209 732 -330 92 -61 320
-275 383 -359 l27 -35 0 698 0 697 -179 0 -180 0 -15 53 c-8 28 -22 81 -31
117 -55 214 -187 551 -301 768 -269 510 -563 855 -915 1073 l-96 59 -989 0
-989 0 -54 -36z"/>
<path d="M5113 5065 c0 -33 2 -45 4 -27 2 18 2 45 0 60 -2 15 -4 0 -4 -33z"/>
</g>
</svg>
